<svg width="10" height="10" viewBox="0 0 10 10" fill="none" xmlns="http://www.w3.org/2000/svg">
<path d="M7.70125 6.98624C7.13174 7.12299 6.5372 7.11637 5.97087 6.96696C5.40455 6.81755 4.88412 6.53002 4.45619 6.13012C4.02825 5.73022 3.70618 5.23044 3.5188 4.67552C3.33142 4.1206 3.28459 3.52787 3.3825 2.95041C3.36783 2.96503 3.3521 2.97854 3.33542 2.99083C3.21875 3.07958 3.07292 3.11249 2.78125 3.17833L2.51667 3.23833C1.49167 3.47041 0.979168 3.58624 0.857085 3.97833C0.735418 4.36999 1.08458 4.77874 1.78333 5.59583L1.96417 5.80708C2.1625 6.03916 2.26208 6.15541 2.30667 6.29874C2.35125 6.44249 2.33625 6.59749 2.30625 6.90708L2.27875 7.18916C2.17333 8.27958 2.12042 8.82458 2.43958 9.06666C2.75875 9.30874 3.23875 9.08833 4.19792 8.64624L4.44667 8.53208C4.71917 8.40624 4.85542 8.34374 5 8.34374C5.14458 8.34374 5.28083 8.40624 5.55375 8.53208L5.80167 8.64624C6.76125 9.08791 7.24125 9.30874 7.56 9.06708C7.87958 8.82458 7.82667 8.27958 7.72125 7.18916L7.70125 6.98624Z" fill="white"/>
<path opacity="0.5" d="M3.81375 2.25333L3.67708 2.49833C3.52708 2.76749 3.45208 2.90208 3.33542 2.99083C3.35208 2.97833 3.36778 2.96486 3.3825 2.95041C3.28456 3.52791 3.33139 4.12069 3.51879 4.67565C3.70619 5.23062 4.02831 5.73044 4.45629 6.13035C4.88428 6.53026 5.40477 6.81778 5.97115 6.96715C6.53754 7.11652 7.13213 7.12308 7.70167 6.98625L7.69333 6.90708C7.66375 6.5975 7.64875 6.44249 7.69333 6.29875C7.73792 6.15541 7.83708 6.03916 8.03583 5.80708L8.21667 5.59583C8.91542 4.77916 9.26458 4.37041 9.1425 3.97833C9.02083 3.58625 8.50833 3.47 7.48333 3.23833L7.21833 3.17833C6.92708 3.11249 6.78125 3.07958 6.66417 2.99083C6.5475 2.90208 6.4725 2.76749 6.3225 2.49833L6.18625 2.25333C5.65833 1.30666 5.39458 0.833328 5 0.833328C4.60542 0.833328 4.34167 1.30666 3.81375 2.25333Z" fill="white"/>
</svg>
